<svg xmlns="http://www.w3.org/2000/svg" width="96" height="96" viewBox="0 0 96 96"><circle cx="48" cy="48" r="45" fill="#d38c35" stroke="#ffe7a0" stroke-width="4"/><path d="M23 60 Q22 32 48 32 Q75 32 73 60 Q70 83 48 85 Q25 81 23 60" fill="#ffc891" stroke="#573825" stroke-width="3"/><path d="M26 42 L22 27 Q6 11 25 9 Q35 1 46 14 Q57 -1 69 11 Q87 9 82 28 L70 43 Z" fill="#fff7dc" stroke="#573825" stroke-width="3"/><path d="M26 35 L70 35 L70 47 L26 47 Z" fill="#f9eed3" stroke="#573825" stroke-width="3"/><path d="M37 26 L38 34 M57 24 L56 34" fill="none" stroke="#ceb98f" stroke-width="3"/><ellipse cx="37" cy="58" rx="3" ry="4" fill="#332b23"/><ellipse cx="59" cy="58" rx="3" ry="4" fill="#332b23"/><path d="M48 67 Q39 60 29 71 Q37 79 48 72 Q59 79 68 71 Q59 60 48 67" fill="#513326"/><path d="M42 78 Q48 83 54 78" fill="none" stroke="#9b503a" stroke-width="3" stroke-linecap="round"/></svg>
